<svg width="1325" height="269" viewBox="0 0 1325 269" fill="none" xmlns="http://www.w3.org/2000/svg">
<path d="M1321.74 115.68L1295.37 118.558C1294.62 115.893 1293.32 113.389 1291.45 111.044C1289.64 108.7 1287.19 106.808 1284.1 105.369C1281.01 103.931 1277.22 103.211 1272.75 103.211C1266.73 103.211 1261.66 104.517 1257.56 107.128C1253.51 109.739 1251.51 113.123 1251.57 117.279C1251.51 120.849 1252.82 123.753 1255.48 125.991C1258.2 128.229 1262.68 130.068 1268.91 131.506L1289.85 135.982C1301.47 138.487 1310.1 142.456 1315.75 147.892C1321.45 153.327 1324.33 160.44 1324.38 169.233C1324.33 176.959 1322.06 183.78 1317.59 189.694C1313.16 195.556 1307.01 200.138 1299.12 203.442C1291.24 206.746 1282.18 208.398 1271.95 208.398C1256.92 208.398 1244.83 205.254 1235.66 198.966C1226.5 192.625 1221.03 183.806 1219.28 172.51L1247.49 169.792C1248.77 175.334 1251.49 179.517 1255.64 182.341C1259.8 185.165 1265.21 186.577 1271.87 186.577C1278.74 186.577 1284.26 185.165 1288.41 182.341C1292.62 179.517 1294.73 176.027 1294.73 171.87C1294.73 168.353 1293.37 165.449 1290.65 163.158C1287.99 160.867 1283.83 159.108 1278.18 157.883L1257.24 153.487C1245.47 151.036 1236.75 146.906 1231.1 141.098C1225.46 135.236 1222.66 127.83 1222.71 118.877C1222.66 111.311 1224.71 104.757 1228.87 99.215C1233.08 93.62 1238.91 89.3038 1246.37 86.2665C1253.88 83.1759 1262.54 81.6306 1272.35 81.6306C1286.73 81.6306 1298.06 84.6946 1306.32 90.8225C1314.63 96.9503 1319.77 105.236 1321.74 115.68Z" fill="black"/>
<path d="M1134.19 167.474L1134.11 132.545H1138.75L1182.87 83.2292H1216.68L1162.41 143.655H1156.41L1134.19 167.474ZM1107.82 206V42.3056H1136.75V206H1107.82ZM1184.87 206L1144.91 150.13L1164.41 129.748L1219.48 206H1184.87Z" fill="black"/>
<path d="M1010.85 134.064V206H981.914V83.2292H1009.57V104.091H1011.01C1013.83 97.2168 1018.34 91.755 1024.52 87.7052C1030.75 83.6555 1038.45 81.6306 1047.62 81.6306C1056.09 81.6306 1063.47 83.4424 1069.76 87.0658C1076.1 90.6892 1081 95.9379 1084.46 102.812C1087.98 109.686 1089.71 118.025 1089.66 127.83V206H1060.72V132.306C1060.72 124.099 1058.59 117.679 1054.33 113.043C1050.12 108.407 1044.29 106.089 1036.83 106.089C1031.76 106.089 1027.26 107.208 1023.32 109.446C1019.43 111.631 1016.36 114.801 1014.13 118.957C1011.94 123.114 1010.85 128.149 1010.85 134.064Z" fill="black"/>
<path d="M934.48 206V83.2292H963.415V206H934.48ZM949.028 65.8047C944.445 65.8047 940.502 64.2861 937.198 61.2488C933.894 58.1582 932.242 54.4548 932.242 50.1386C932.242 45.7692 933.894 42.0658 937.198 39.0285C940.502 35.938 944.445 34.3927 949.028 34.3927C953.663 34.3927 957.607 35.938 960.857 39.0285C964.161 42.0658 965.813 45.7692 965.813 50.1386C965.813 54.4548 964.161 58.1582 960.857 61.2488C957.607 64.2861 953.663 65.8047 949.028 65.8047Z" fill="black"/>
<path d="M915.981 42.3056V206H887.047V42.3056H915.981Z" fill="black"/>
<path d="M757.806 206V42.3056H786.74V103.531H787.939C789.431 100.547 791.536 97.3766 794.253 94.0196C796.971 90.6093 800.648 87.7052 805.283 85.3074C809.919 82.8562 815.834 81.6306 823.028 81.6306C832.513 81.6306 841.065 84.0551 848.685 88.9042C856.358 93.6999 862.433 100.814 866.909 110.245C871.438 119.623 873.703 131.133 873.703 144.774C873.703 158.256 871.491 169.712 867.068 179.144C862.646 188.575 856.624 195.769 849.005 200.725C841.385 205.68 832.752 208.158 823.108 208.158C816.074 208.158 810.239 206.986 805.603 204.641C800.967 202.297 797.237 199.472 794.413 196.169C791.642 192.812 789.484 189.641 787.939 186.657H786.26V206H757.806ZM786.18 144.615C786.18 152.554 787.299 159.508 789.537 165.476C791.829 171.444 795.106 176.107 799.369 179.464C803.685 182.767 808.907 184.419 815.035 184.419C821.429 184.419 826.784 182.714 831.1 179.304C835.417 175.84 838.667 171.124 840.852 165.156C843.09 159.135 844.209 152.288 844.209 144.615C844.209 136.995 843.116 130.227 840.932 124.313C838.747 118.398 835.497 113.762 831.18 110.405C826.864 107.048 821.482 105.369 815.035 105.369C808.854 105.369 803.605 106.995 799.289 110.245C794.973 113.496 791.696 118.052 789.458 123.913C787.273 129.774 786.18 136.675 786.18 144.615Z" fill="black"/>
<path d="M656.6 252.039C653.03 252.039 649.779 251.746 646.849 251.16C643.918 250.627 641.733 250.041 640.294 249.401L646.049 229.819C650.419 230.991 654.309 231.497 657.719 231.337C661.129 231.178 664.14 229.899 666.751 227.501C669.415 225.103 671.76 221.186 673.785 215.751L676.742 207.599L631.822 83.2292H657.399L688.491 178.504H689.77L720.863 83.2292H746.52L695.925 222.385C693.58 228.78 690.596 234.188 686.973 238.611C683.349 243.087 679.033 246.444 674.024 248.682C669.015 250.92 663.207 252.039 656.6 252.039Z" fill="black"/>
<path d="M620.596 42.3056V206H596.697V42.3056H620.596Z" fill="black"/>
<path d="M497.33 133.105V206H473.431V83.2292H496.37V103.211H497.889C500.713 96.7105 505.136 91.4885 511.157 87.5454C517.232 83.6022 524.878 81.6306 534.097 81.6306C542.463 81.6306 549.79 83.3891 556.077 86.9059C562.365 90.3695 567.241 95.5383 570.704 102.412C574.168 109.286 575.9 117.785 575.9 127.909V206H552.001V130.787C552.001 121.888 549.683 114.934 545.047 109.925C540.411 104.863 534.044 102.332 525.944 102.332C520.402 102.332 515.473 103.531 511.157 105.929C506.894 108.327 503.511 111.844 501.006 116.48C498.555 121.062 497.33 126.604 497.33 133.105Z" fill="black"/>
<path d="M400.779 208.478C389.27 208.478 379.225 205.84 370.646 200.565C362.067 195.289 355.407 187.909 350.664 178.424C345.922 168.94 343.55 157.856 343.55 145.174C343.55 132.439 345.922 121.302 350.664 111.764C355.407 102.226 362.067 94.8189 370.646 89.5436C379.225 84.2683 389.27 81.6306 400.779 81.6306C412.289 81.6306 422.334 84.2683 430.913 89.5436C439.492 94.8189 446.152 102.226 450.895 111.764C455.637 121.302 458.009 132.439 458.009 145.174C458.009 157.856 455.637 168.94 450.895 178.424C446.152 187.909 439.492 195.289 430.913 200.565C422.334 205.84 412.289 208.478 400.779 208.478ZM400.859 188.416C408.319 188.416 414.501 186.444 419.403 182.501C424.305 178.558 427.929 173.309 430.273 166.755C432.671 160.201 433.87 152.98 433.87 145.094C433.87 137.261 432.671 130.068 430.273 123.513C427.929 116.906 424.305 111.604 419.403 107.608C414.501 103.611 408.319 101.613 400.859 101.613C393.346 101.613 387.112 103.611 382.156 107.608C377.254 111.604 373.604 116.906 371.206 123.513C368.861 130.068 367.689 137.261 367.689 145.094C367.689 152.98 368.861 160.201 371.206 166.755C373.604 173.309 377.254 178.558 382.156 182.501C387.112 186.444 393.346 188.416 400.859 188.416Z" fill="black"/>
<path fill-rule="evenodd" clip-rule="evenodd" d="M184.286 98.0047C231.27 97.9642 269.333 136.028 269.293 183.012C269.252 229.974 231.157 268.07 184.194 268.11L85.9138 268.195C38.9297 268.236 0.866261 230.172 0.906771 183.188L0.990654 85.9135C1.03114 38.9509 39.1266 0.855467 86.0892 0.814974C133.073 0.774461 171.137 38.8379 171.096 85.822L171.086 98.0161L184.286 98.0047ZM171.058 130.016L170.989 210.118L138.989 210.091L139.096 85.7945C139.122 56.505 115.406 32.7897 86.1168 32.815C56.8057 32.8402 33.0159 56.6301 32.9906 85.9411L32.9641 116.688C47.512 105.064 65.9501 98.1067 86.0053 98.0894L113.296 98.0659L113.323 130.066L86.0329 130.089C56.7299 130.115 32.9451 153.891 32.9068 183.191C32.9068 183.199 32.9068 183.207 32.9068 183.216C32.8815 212.505 56.5967 236.22 85.8862 236.195L184.167 236.11C213.478 236.085 237.267 212.295 237.293 182.984C237.318 153.695 213.603 129.979 184.313 130.005L171.058 130.016Z" fill="black"/>
</svg>
